<?xml version="1.0" encoding="UTF-8"?>
<svg version="1.1" xmlns="http://www.w3.org/2000/svg" width="653" height="425">
<path d="M0 0 C124.55026978 0 124.55026978 0 145.8125 20.1875 C160.28743586 35.51635294 164.48838224 54.53333757 164.21484375 75.0625 C163.63158118 93.78486624 156.2002978 109.56261023 142.87890625 122.55859375 C137.98455048 126.70916683 132.58927608 129.86369775 127 133 C133.64317059 145.448992 140.30630137 157.87554595 147.3125 170.125 C155.91308816 185.18110117 164.24405801 200.48811603 172 216 C154.84 216 137.68 216 120 216 C106.49003236 191.231726 106.49003236 191.231726 99.97064209 178.83349609 C94.32487352 168.09738357 88.67549281 157.37096611 82.64013672 146.84667969 C80 142.20298442 80 142.20298442 80 140 C69.11 140 58.22 140 47 140 C47 165.08 47 190.16 47 216 C31.49 216 15.98 216 0 216 C0 144.72 0 73.44 0 0 Z M47 38 C47 59.12 47 80.24 47 102 C53.661875 102.0825 60.32375 102.165 67.1875 102.25 C69.26184326 102.28641602 71.33618652 102.32283203 73.47338867 102.36035156 C91.82312128 102.55843904 91.82312128 102.55843904 107.5625 93.9375 C114.30505712 87.20590639 116.16308046 80.30841904 116.4375 70.9375 C116.10595435 61.15155595 113.99101194 53.11812125 107 46 C95.57842628 36.38183265 80.80607117 37.62518231 66.8125 37.8125 C57.0053125 37.9053125 57.0053125 37.9053125 47 38 Z " fill="#FF0000" transform="translate(392,71)"/>
<path d="M0 0 C48.18 0 96.36 0 146 0 C146 12.54 146 25.08 146 38 C113 38 80 38 46 38 C46 54.83 46 71.66 46 89 C76.69 89 107.38 89 139 89 C139 101.54 139 114.08 139 127 C108.31 127 77.62 127 46 127 C46 143.83 46 160.66 46 178 C79 178 112 178 146 178 C146 190.54 146 203.08 146 216 C97.82 216 49.64 216 0 216 C0 144.72 0 73.44 0 0 Z " fill="#FF0000" transform="translate(211,71)"/>
<path d="M0 0 C112.23113567 0 112.23113567 0 126.4375 7.75 C127.09161865 8.09289062 127.7457373 8.43578125 128.41967773 8.7890625 C144.73751567 17.61539211 155.10748511 30.97452154 160.96484375 48.43359375 C166.76295596 68.40973129 165.27997747 91.27805045 156 110 C146.38253576 126.47347836 132.35845803 137.38724135 114.20703125 143.2109375 C105.16814572 145.43487767 96.63672645 146.28280991 87.33203125 146.1953125 C86.30122437 146.19329834 85.27041748 146.19128418 84.20837402 146.18920898 C80.40970316 146.17885648 76.61109643 146.15093525 72.8125 146.125 C64.294375 146.08375 55.77625 146.0425 47 146 C47 169.1 47 192.2 47 216 C31.49 216 15.98 216 0 216 C0 144.72 0 73.44 0 0 Z M47 38 C47 61.43 47 84.86 47 109 C53.0225 109.061875 59.045 109.12375 65.25 109.1875 C67.12461914 109.21481201 68.99923828 109.24212402 70.93066406 109.27026367 C84.50304545 109.38710049 96.52828627 108.59440438 107 99 C114.33638155 90.77953019 116.60698836 80.73432634 116.28515625 69.91796875 C115.36690655 60.52163282 111.71745338 52.20134572 104.75 45.75 C96.55813743 39.18577825 87.93650555 37.84023378 77.76171875 37.90234375 C76.58977966 37.90385437 76.58977966 37.90385437 75.39416504 37.90539551 C72.4919283 37.91060447 69.58971259 37.92456567 66.6875 37.9375 C60.190625 37.958125 53.69375 37.97875 47 38 Z " fill="#FF0000" transform="translate(18,71)"/>
<path d="M0 0 C15.51 0 31.02 0 47 0 C47 71.28 47 142.56 47 216 C31.49 216 15.98 216 0 216 C0 144.72 0 73.44 0 0 Z " fill="#FF0000" transform="translate(587,71)"/>
<path d="M0 0 C5.28 0 10.56 0 16 0 C19.88683832 3.92551333 21.84222722 6.44535791 24.375 11.125 C25.70147548 13.33822904 27.02959468 15.55047379 28.359375 17.76171875 C28.98005859 18.83728027 29.60074219 19.9128418 30.24023438 21.02099609 C32.49020636 24.82984157 34.98675445 28.39136035 37.625 31.9375 C41.23676625 36.88575015 44.58891218 41.88336826 48 47 C48.33 31.49 48.66 15.98 49 0 C54.61 0 60.22 0 66 0 C66 26.07 66 52.14 66 79 C61.05 79 56.1 79 51 79 C47.42650059 75.21629474 45.4880965 72.42328267 43 68 C41.32016267 65.46533831 39.56103682 62.98757722 37.8125 60.5 C36.88321178 59.14734547 35.95619645 57.79312714 35.03125 56.4375 C32.2728544 52.39920885 29.51089075 48.363374 26.74804688 44.328125 C24.16426707 40.55283423 21.58231698 36.7762915 19 33 C18.67 48.18 18.34 63.36 18 79 C12.06 79 6.12 79 0 79 C0 52.93 0 26.86 0 0 Z " fill="#FFAC66" transform="translate(572,320)"/>
<path d="M0 0 C45.35251799 0 45.35251799 0 56.74609375 10.62890625 C64.19893896 18.63932093 66.93157221 28.89871606 67.03515625 39.6484375 C66.55925787 51.09321312 64.25586683 61.61542255 56 70 C40.01415492 83.50052175 20.51154699 79 0 79 C0 52.93 0 26.86 0 0 Z M17 15 C17 31.17 17 47.34 17 64 C32.09902574 64.98805515 32.09902574 64.98805515 43.5078125 58.609375 C48.50325399 53.18575281 49.37062606 47.24670634 49.3125 40.125 C49.30758545 39.41682129 49.3026709 38.70864258 49.29760742 37.97900391 C49.13845222 30.89292463 47.67948636 26.69735688 43.9375 20.6875 C36.19249519 13.60164454 27.33517608 15 17 15 Z " fill="#FFAC66" transform="translate(80,320)"/>
<path d="M0 0 C8.71603679 6.37000907 13.59645178 14.59495669 15.80859375 25.23828125 C17.33943113 37.40607114 16.28952816 50.84672327 9.1875 61.25 C3.57836605 68.21261407 -3.85241424 73.64136701 -12.8125 75.25 C-25.23130073 76.09453383 -36.03808704 75.16467469 -46.03515625 66.92578125 C-54.67916628 58.77571465 -57.85375856 48.90372601 -58.28515625 37.16455078 C-58.43253093 23.81398411 -55.62341302 13.32378028 -46.1875 3.5703125 C-33.63539584 -8.11011776 -14.35070195 -8.99022199 0 0 Z M-34.8125 15.25 C-40.24500739 22.67895386 -41.403056 30.97757949 -40.5546875 39.98828125 C-39.44329225 46.64654914 -37.35843849 51.83462246 -32.375 56.5625 C-27.44771783 59.80729558 -23.75267135 60.76208374 -17.8125 60.25 C-11.05977469 58.03790033 -6.8879129 54.65657089 -3.5 48.4375 C-0.189011 40.355984 -0.51932169 29.79644313 -3.375 21.625 C-5.82225632 16.42348389 -9.69357461 12.80946269 -14.8125 10.25 C-22.49613543 9.42253157 -29.18000867 9.47408875 -34.8125 15.25 Z " fill="#FFAC66" transform="translate(544.8125,324.75)"/>
<path d="M0 0 C7.26 0 14.52 0 22 0 C26.49967605 10.1242711 26.49967605 10.1242711 27.91943359 14.34179688 C28.40046036 15.76002747 28.40046036 15.76002747 28.89120483 17.20690918 C29.22359161 18.20081665 29.55597839 19.19472412 29.8984375 20.21875 C30.25588043 21.27549927 30.61332336 22.33224854 30.9815979 23.42102051 C32.11676027 26.77933677 33.24614696 30.13955829 34.375 33.5 C35.49468006 36.8222341 36.61560122 40.14404533 37.73736572 43.46557617 C38.46501957 45.62035977 39.19171697 47.77546662 39.91741943 49.9309082 C42.29668591 56.98101362 44.73644886 64.00676867 47.30575562 70.9901123 C48.32787709 73.81735175 49 75.96482845 49 79 C43.06 79 37.12 79 31 79 C28.45036952 72.88088684 26.62954307 67.51817229 25 61 C11.635 61.495 11.635 61.495 -2 62 C-3.98 67.61 -5.96 73.22 -8 79 C-14.27 79 -20.54 79 -27 79 C-18.28560578 52.56471473 -9.22429195 26.26150878 0 0 Z M11 20 C9.49500991 24.28993333 7.99685363 28.58222158 6.5 32.875 C5.85611328 34.70998047 5.85611328 34.70998047 5.19921875 36.58203125 C4.79316406 37.74863281 4.38710938 38.91523438 3.96875 40.1171875 C3.59169922 41.19597168 3.21464844 42.27475586 2.82617188 43.38623047 C1.89953763 45.86096201 1.89953763 45.86096201 2 48 C8.27 48 14.54 48 21 48 C18.03 38.76 15.06 29.52 12 20 C11.67 20 11.34 20 11 20 Z " fill="#FFA964" transform="translate(338,320)"/>
<path d="M0 0 C5.61 0 11.22 0 17 0 C17.01458252 1.52810303 17.02916504 3.05620605 17.04418945 4.63061523 C17.10238822 10.32811271 17.17962011 16.0252239 17.26245117 21.72241211 C17.29559912 24.18296006 17.32366222 26.6435822 17.34643555 29.10424805 C17.38016755 32.65184997 17.43249428 36.19877824 17.48828125 39.74609375 C17.49467117 40.8370787 17.5010611 41.92806366 17.50764465 43.05210876 C17.62697941 49.32445394 18.03642532 55.34276967 21 61 C23.38788787 62.62332335 23.38788787 62.62332335 26 63 C27.485 63.495 27.485 63.495 29 64 C34.58419173 64.36617651 38.22647798 64.2546741 43 61 C48.10299777 55.43107635 47.60174907 49.65775827 47.609375 42.3828125 C47.62591125 41.17051971 47.64244751 39.95822693 47.65948486 38.709198 C47.70796186 34.8477471 47.7293364 30.98669007 47.75 27.125 C47.77815973 24.50258436 47.80808715 21.88018705 47.83984375 19.2578125 C47.91372159 12.83857408 47.96329875 6.41955428 48 0 C53.94 0 59.88 0 66 0 C66.04961363 7.5256251 66.08582089 15.05115397 66.10986328 22.5769043 C66.11989132 25.13453837 66.13351707 27.69216106 66.15087891 30.24975586 C66.17526779 33.93606382 66.1865154 37.62221954 66.1953125 41.30859375 C66.20563507 42.44332626 66.21595764 43.57805878 66.22659302 44.74717712 C66.22808575 55.42362873 65.03507836 63.668133 58 72 C55.83402497 74.0830669 53.65053513 75.59190321 51 77 C50.401875 77.31839844 49.80375 77.63679688 49.1875 77.96484375 C40.03911649 81.84218598 27.20910522 81.46195867 17.875 78.4375 C10.32230906 75.1310224 5.0535683 70.33535494 1.69140625 62.796875 C0.26833682 59.09850247 -0.12208977 56.28338386 -0.11352539 52.33520508 C-0.11344986 51.17422806 -0.11337433 50.01325104 -0.11329651 48.8170929 C-0.10813522 47.56389755 -0.10297394 46.31070221 -0.09765625 45.01953125 C-0.0962413 43.73640549 -0.09482635 42.45327972 -0.09336853 41.13127136 C-0.08955405 37.72329759 -0.07973291 34.31536657 -0.06866455 30.90740967 C-0.05842743 27.42851337 -0.05386598 23.94961015 -0.04882812 20.47070312 C-0.03810967 13.64711611 -0.02052152 6.82356451 0 0 Z " fill="#FFAA65" transform="translate(158,320)"/>
<path d="M0 0 C17.82 0 35.64 0 54 0 C54 4.62 54 9.24 54 14 C53 15 53 15 49.58178711 15.11352539 C48.06363012 15.11336628 46.54546771 15.10767226 45.02734375 15.09765625 C44.22970108 15.0962413 43.43205841 15.09482635 42.61024475 15.09336853 C40.05262565 15.08775316 37.49509282 15.07519812 34.9375 15.0625 C33.20768355 15.05748698 31.47786574 15.05292373 29.74804688 15.04882812 C25.49863761 15.03862791 21.24941584 15.01905568 17 15 C17 20.61 17 26.22 17 32 C28.22 32 39.44 32 51 32 C51 36.95 51 41.9 51 47 C39.78 47 28.56 47 17 47 C17 52.94 17 58.88 17 65 C29.21 65 41.42 65 54 65 C54 69.62 54 74.24 54 79 C36.18 79 18.36 79 0 79 C0 52.93 0 26.86 0 0 Z " fill="#FFAC66" transform="translate(14,320)"/>
<path d="M0 0 C6.56366195 4.84167909 10.06527372 10.86826548 12.29296875 18.69140625 C12.29296875 20.01140625 12.29296875 21.33140625 12.29296875 22.69140625 C6.35296875 22.69140625 0.41296875 22.69140625 -5.70703125 22.69140625 C-6.69703125 20.38140625 -7.68703125 18.07140625 -8.70703125 15.69140625 C-14.0338506 10.75435417 -17.61774552 10.34216667 -24.72265625 10.41015625 C-29.94598059 10.90240671 -32.48098691 13.39724834 -35.95703125 17.06640625 C-41.1533835 24.86093463 -40.57259735 34.68232338 -39.70703125 43.69140625 C-38.55469116 48.53123462 -36.78476586 51.5853102 -33.33203125 55.12890625 C-27.03350653 58.87802811 -21.78508631 59.25663469 -14.70703125 57.69140625 C-8.68001806 54.84227274 -8.55441115 53.33529269 -5.70703125 46.69140625 C0.23296875 46.69140625 6.17296875 46.69140625 12.29296875 46.69140625 C10.88275226 56.56292171 7.51931024 62.60878808 -0.21484375 68.9609375 C-9.31496828 75.27967601 -19.94710755 76.12917705 -30.70703125 74.69140625 C-38.46531613 72.72132492 -45.67423196 69.03100535 -50.70703125 62.69140625 C-58.42847998 49.66709487 -60.72044518 36.85147205 -58.0234375 21.90234375 C-55.25819743 12.10352623 -50.15917403 4.46903732 -41.70703125 -1.30859375 C-28.18277494 -8.59446677 -12.9538656 -8.33465771 0 0 Z " fill="#FFAC66" transform="translate(293.70703125,325.30859375)"/>
<path d="M0 0 C21.45 0 42.9 0 65 0 C65 4.95 65 9.9 65 15 C57.08 15 49.16 15 41 15 C41 36.12 41 57.24 41 79 C35.39 79 29.78 79 24 79 C24 57.88 24 36.76 24 15 C16.08 15 8.16 15 0 15 C0 10.05 0 5.1 0 0 Z " fill="#FFB66E" transform="translate(383,320)"/>
<path d="M0 0 C5.61 0 11.22 0 17 0 C17 26.07 17 52.14 17 79 C11.39 79 5.78 79 0 79 C0 52.93 0 26.86 0 0 Z " fill="#FFAC66" transform="translate(458,320)"/>
</svg>
